PathFileType	4	(X/Y/Z)	D:\TRACE\spotREDO_2-26-24\spot_baseline_1-v60.trc
DataRate	CameraRate	NumFrames	NumMarkers	Units	OrigDataRate	OrigDataStartFrame	OrigNumFrames
100.00	100.00	      24	9	mm	100.00	4376	      7000
Frame#	Time	front left toe			Front right toe			aft left toe			aft right toe			Arm			FL body			FR body			AL Body			AR Body			
		X1	Y1	Z1	X2	Y2	Z2	X3	Y3	Z3	X4	Y4	Z4	X5	Y5	Z5	X6	Y6	Z6	X7	Y7	Z7	X8	Y8	Z8	X9	Y9	Z9	

4376	43.750	-248.73070	21.30024	-150.15935	217.59660	18.68810	-204.13312	-194.09761	23.92208	288.64404	270.53928	22.26300	233.73558	-5.88831	807.28009	-406.79544	-80.74444	546.54083	-372.70593	74.02844	554.03503	-394.23242	33.15961	556.67450	503.71652	180.53864	559.95447	485.25201	
4377	43.760	-248.74319	21.27768	-150.12941	217.78062	18.76822	-203.94427	-194.09770	23.86823	288.61191	270.46405	22.16135	233.69560	-6.70222	807.28442	-406.54285	-81.43155	546.30457	-372.40875	73.21528	554.14459	-394.10211	32.66510	556.51154	503.86453	179.91544	560.02728	485.48730	
4378	43.770	-248.75002	21.18674	-150.09756	217.72505	18.82159	-203.97461	-194.10687	23.82400	288.61200	270.51828	22.28307	233.71489	-7.41782	807.17102	-406.19046	-82.09209	546.23035	-372.17371	72.75512	554.04181	-394.03613	31.97649	556.45801	504.08945	179.51787	560.12427	485.72043	
4379	43.780	-248.82028	21.22499	-150.05876	218.29306	19.42527	-203.64523	-194.16617	23.89741	288.63281	270.39111	22.47984	233.85242	-8.03439	807.08954	-406.03296	-82.51521	546.17987	-372.06616	72.25025	554.02576	-393.83670	31.38499	556.51874	504.21396	178.84244	560.31848	486.02911	
4380	43.790	-248.91611	21.24075	-150.03441	218.29424	19.44354	-203.65285	-194.18158	23.91071	288.65997	270.35025	22.63112	233.87985	-8.71153	807.17169	-405.91266	-83.06808	546.26758	-371.89230	71.61997	554.09003	-393.66037	30.79787	556.53906	504.38678	178.31200	560.39258	486.25851	
4381	43.800	-248.91679	21.22650	-150.02220	218.03545	19.00953	-203.91635	-194.28062	23.86182	288.66248	270.26651	22.69244	233.89490	-9.39959	807.04700	-405.92053	-83.67908	546.24182	-371.67520	71.04032	554.16492	-393.50351	30.18580	556.54852	504.65927	177.40572	560.49554	486.52969	
4382	43.810	-248.96283	21.11658	-149.95695	217.97450	19.32846	-203.82549	-194.30629	23.77030	288.73431	270.21033	22.69580	233.84834	-9.86588	806.96667	-405.72736	-84.32761	546.14764	-371.55896	70.39402	554.10004	-393.28735	29.60156	556.70190	504.90207	177.02065	560.62677	486.73050	
4383	43.820	-249.03313	21.09073	-149.92458	217.78998	19.46164	-203.79358	-194.29295	23.63334	288.78391	270.21637	22.69350	233.91173	-10.55151	806.89111	-405.45447	-84.86906	545.98755	-371.36905	69.74651	554.07330	-393.13586	28.92315	556.86847	505.02713	176.40472	560.74518	486.85867	
4384	43.830	-249.12224	21.10678	-149.91925	217.52284	19.31500	-203.87198	-194.25182	23.56578	288.84167	270.19815	22.75758	233.90039	-11.09018	806.85809	-405.33630	-85.45708	545.93610	-371.08850	69.39069	554.15820	-392.98117	28.33349	557.01819	505.14035	175.78334	560.89734	487.09006	
4385	43.840	-249.10521	21.10759	-149.94797	217.35875	19.18612	-203.93770	-194.21988	23.55715	288.88754	270.21646	22.80214	233.90166	-11.87496	806.97772	-405.35812	-85.88099	545.96289	-371.01083	68.83471	554.15674	-392.84192	27.38596	557.24475	504.98212	175.16350	560.90857	487.26981	
4386	43.850	-249.13399	21.14405	-149.94919	217.37958	19.26849	-203.91618	-194.22968	23.42013	288.97159	270.12405	22.79013	233.86842	-12.37341	807.00092	-405.29633	-86.61407	546.12769	-370.75742	68.09490	554.20276	-392.65588	27.00729	557.21570	505.40308	174.41901	560.97241	487.55374	
4387	43.860	-249.15327	21.08323	-149.93260	217.34048	19.34705	-203.89977	-194.33888	23.42898	288.99088	270.07513	22.84721	233.87291	-12.77871	806.90863	-405.26590	-86.93723	546.04224	-370.42484	67.60223	554.10327	-392.45074	26.46738	557.31830	505.48157	174.11148	561.07233	487.64764	
4388	43.870	-249.19408	21.02064	-149.96814	217.26039	19.29747	-203.90250	-194.37027	23.36737	288.92471	270.02988	22.88189	233.86311	-13.13952	806.99432	-405.17661	-87.52203	546.05457	-370.46805	66.92979	553.99091	-392.33096	25.73918	557.45697	505.61462	173.36523	561.15747	487.76132	
4389	43.880	-249.25659	20.96792	-149.97250	217.24065	19.43847	-203.86420	-194.39906	23.31109	288.90683	269.97803	22.92070	233.84500	-13.58385	807.04993	-404.97589	-88.44378	546.26862	-370.48563	66.41211	554.06555	-392.22321	24.91423	557.66333	505.85489	173.00352	561.25635	488.05017	
4390	43.890	-249.35759	21.03009	-149.91605	217.19157	19.51125	-203.81061	-194.45872	23.35185	288.94379	269.97995	22.96159	233.84544	-13.86424	807.12225	-404.67389	-89.11472	546.48145	-370.33359	65.70596	553.94812	-392.12698	24.41254	557.80084	506.01123	172.58340	561.20642	488.30020	
4391	43.900	-249.49893	21.13823	-149.89954	217.12181	19.54503	-203.76910	-194.49936	23.28599	288.96848	269.96707	22.99585	233.79480	-14.09905	807.18341	-404.53928	-89.76333	546.70959	-370.28824	64.85765	553.93103	-391.99326	24.03328	557.90863	506.19580	172.05890	561.10419	488.44391	
4392	43.910	-249.52951	21.10833	-149.87617	217.03862	19.56397	-203.80742	-194.48889	23.22100	288.94745	269.93506	23.00818	233.80919	-14.48655	807.17896	-404.39572	-90.41050	546.80157	-370.17224	63.69436	553.92841	-391.76337	23.55372	558.02740	506.33081	171.39589	561.11346	488.58316	
4393	43.920	-249.60027	21.00224	-149.91916	216.98911	19.57173	-203.81386	-194.49805	23.13654	288.97577	269.95679	23.00515	233.80223	-14.83698	807.21735	-404.23828	-91.01299	546.86755	-370.02045	63.10757	553.79327	-391.74475	22.63247	558.16913	506.41040	171.05069	561.10602	488.73837	
4394	43.930	-249.55176	20.86736	-149.84085	216.93684	19.62295	-203.78616	-194.66174	23.10396	288.94513	269.87152	23.02239	233.76727	-15.31599	807.23108	-404.20395	-91.40948	546.75690	-369.61453	63.09558	553.67383	-391.55273	22.13625	558.26904	506.50439	170.24374	561.20697	488.89758	
4395	43.940	-249.60875	20.83480	-149.77251	216.88152	19.67800	-203.73868	-194.73924	23.07792	288.94992	269.86520	23.03074	233.77057	-15.53197	807.24103	-404.18808	-92.22615	547.00250	-369.49249	62.64745	553.65295	-391.35968	21.37858	558.55499	506.23596	169.68834	561.16290	489.12466	
4396	43.950	-249.68634	20.82698	-149.77083	216.85818	19.73962	-203.70457	-194.74101	23.06815	288.95273	269.87396	23.06341	233.73067	-15.73680	807.28491	-404.17715	-92.72421	547.16949	-369.47260	61.28348	553.75446	-391.22015	20.92165	558.75372	506.44601	169.17119	561.16241	489.18924	
4397	43.960	-249.70221	20.77604	-149.73848	216.85164	19.78555	-203.66161	-194.91818	23.11642	289.00513	269.84744	23.09365	233.71289	-15.97384	807.33148	-404.06052	-93.43639	547.34808	-369.26025	60.63499	553.69666	-390.94180	20.16521	558.90833	506.68521	168.71664	561.27844	489.20480	
4398	43.970	-249.71497	20.67264	-149.67157	216.79921	19.81719	-203.69647	-194.76517	22.92219	289.05573	269.84012	23.08712	233.72990	-16.37058	807.36218	-403.87695	-94.08199	547.53662	-369.10779	59.97803	553.69788	-391.00296	19.65851	559.00665	506.84656	168.15410	561.12830	489.30783	
4399	43.980	-249.74893	20.54490	-149.61734	216.75586	19.84682	-203.72491	-194.78696	22.76807	289.10101	269.82172	23.11411	233.71550	-16.69956	807.46082	-403.65366	-94.67751	547.67584	-368.97879	59.31556	553.67175	-391.01816	19.32026	559.02570	507.16147	167.63326	560.94812	489.51138	
